# xmcd
#
# Track frame offsets:
#	182
#	14765
#	27467
#	38397
#	50125
#	63775
#	80155
#	91522
#	106437
#	117210
#	134640
#	148832
#	164445
#	175697
#	190452
#
# Disc length: 2828 seconds
#
# Revision: 1
# Processed by: cddbd v1.4PL0 Copyright (c) Steve Scherf et al.
# Submitted via: audiograbber 1.82.02
#
DISCID=d20b0a0f
DTITLE=Detroit Spinners - Sweet Soul Music
DYEAR=1900
DGENRE=
TTITLE0=It's A Shame
TTITLE1=Together We Can Make Such Sweet Music
TTITLE2=(She's Gonna Love Me) At Sundown
TTITLE3=I've Got To Find Myself A Brand New Baby
TTITLE4=Pay Them No Mind
TTITLE5=My Whole World Ended (The Moment You Left Me)
TTITLE6=Souly Ghost
TTITLE7=Message From A Black Man
TTITLE8=It Hurts To Be In Love
TTITLE9=Medley: I Can Sing A Rainbow/Love Is Blue
TTITLE10=That's What Girls Are Made For
TTITLE11=We'll Have Made It
TTITLE12=Bad Bad Weather (Till You Come Home)
TTITLE13=O-o-h Child
TTITLE14=My Lady Love
EXTD=
EXTT0=
EXTT1=
EXTT2=
EXTT3=
EXTT4=
EXTT5=
EXTT6=
EXTT7=
EXTT8=
EXTT9=
EXTT10=
EXTT11=
EXTT12=
EXTT13=
EXTT14=
PLAYORDER=
